<svg width="638" height="320" viewBox="0 0 638 320" fill="none" xmlns="http://www.w3.org/2000/svg">
<path d="M80 15.0925C80 6.78301 87.6225 0.046875 97.0253 0.046875H541.475C550.877 0.046875 558.5 6.78302 558.5 15.0925V304.126C558.5 312.436 550.877 319.172 541.475 319.172H97.0253C87.6225 319.172 80 312.436 80 304.126V15.0925Z" fill="url(#paint0_linear_706_874)"/>
<path fill-rule="evenodd" clip-rule="evenodd" d="M541.225 1.63062H96.7753C88.3622 1.63062 81.5421 7.65769 81.5421 15.0925V304.126C81.5421 311.561 88.3622 317.588 96.7753 317.588H541.225C549.638 317.588 556.458 311.561 556.458 304.126V15.0925C556.458 7.6577 549.638 1.63062 541.225 1.63062ZM96.7753 0.046875C87.3725 0.046875 79.75 6.78301 79.75 15.0925V304.126C79.75 312.436 87.3725 319.172 96.7753 319.172H541.225C550.627 319.172 558.25 312.436 558.25 304.126V15.0925C558.25 6.78302 550.627 0.046875 541.225 0.046875H96.7753Z" fill="url(#paint1_linear_706_874)"/>
<path d="M364.699 249.093C364.699 245.812 367.71 243.151 371.425 243.151H390.761C394.475 243.151 397.486 245.812 397.486 249.093V266.176C397.486 269.458 394.475 272.118 390.761 272.118H371.425C367.71 272.118 364.699 269.458 364.699 266.176V249.093Z" fill="#51CB9C"/>
<path d="M376.263 263.205L370.583 257.623L376.263 252.064H378.974L373.27 257.623L378.974 263.205H376.263Z" fill="white"/>
<path d="M383.186 252.064H385.896L391.6 257.623L385.896 263.205H383.186L388.89 257.623L383.186 252.064Z" fill="white"/>
<path d="M258.066 91.5112C258.066 88.2296 261.078 85.5693 264.792 85.5693H284.128C287.842 85.5693 290.853 88.2296 290.853 91.5112V108.594C290.853 111.876 287.842 114.536 284.128 114.536H264.792C261.078 114.536 258.066 111.876 258.066 108.594V91.5112Z" fill="#1ABCFE"/>
<path fill-rule="evenodd" clip-rule="evenodd" d="M277.349 96.4949L274.687 92.8955H266.7V108.493H282.673V96.4949H277.349ZM280.572 98.3518H276.212L273.549 94.7523H268.802V106.636H280.572V98.3518Z" fill="white"/>
<path d="M425.631 123.977C425.631 120.695 428.642 118.035 432.356 118.035H451.692C455.407 118.035 458.418 120.695 458.418 123.977V141.06C458.418 144.342 455.407 147.002 451.692 147.002H432.356C428.642 147.002 425.631 144.342 425.631 141.06V123.977Z" fill="#FFC04A"/>
<path d="M434.039 131.77C435.399 131.546 436.079 130.927 436.079 129.914C436.079 129.466 436.013 128.701 435.879 127.617C435.746 126.462 435.679 125.626 435.679 125.108C435.679 124.259 435.946 123.611 436.479 123.164C437.026 122.716 437.753 122.492 438.659 122.492H439.82V123.888H438.999C438.479 123.888 438.093 123.994 437.839 124.206C437.586 124.407 437.459 124.742 437.459 125.214C437.459 125.555 437.486 125.979 437.539 126.486C437.593 126.981 437.626 127.316 437.639 127.493C437.773 128.624 437.839 129.449 437.839 129.967C437.839 130.591 437.659 131.116 437.299 131.54C436.953 131.952 436.413 132.229 435.679 132.37V132.406C436.413 132.547 436.953 132.83 437.299 133.254C437.659 133.678 437.839 134.202 437.839 134.827C437.839 135.345 437.773 136.17 437.639 137.301C437.626 137.477 437.593 137.819 437.539 138.326C437.486 138.82 437.459 139.239 437.459 139.58C437.459 140.051 437.586 140.387 437.839 140.587C438.093 140.799 438.479 140.905 438.999 140.905H439.82V142.302H438.659C437.753 142.302 437.026 142.078 436.479 141.63C435.946 141.182 435.679 140.534 435.679 139.686C435.679 139.168 435.746 138.331 435.879 137.177C436.013 136.093 436.079 135.327 436.079 134.88C436.079 133.866 435.399 133.248 434.039 133.024V131.77Z" fill="#1C1E53"/>
<path d="M450.255 133.024C448.895 133.248 448.215 133.866 448.215 134.88C448.215 135.327 448.282 136.093 448.415 137.177C448.548 138.331 448.615 139.168 448.615 139.686C448.615 140.534 448.342 141.182 447.795 141.63C447.262 142.078 446.541 142.302 445.635 142.302H444.475V140.905H445.295C445.815 140.905 446.201 140.799 446.455 140.587C446.708 140.387 446.835 140.051 446.835 139.58C446.835 139.239 446.808 138.82 446.755 138.326C446.701 137.819 446.668 137.477 446.655 137.301C446.521 136.17 446.455 135.345 446.455 134.827C446.455 134.202 446.628 133.678 446.975 133.254C447.335 132.83 447.882 132.547 448.615 132.406V132.37C447.882 132.229 447.335 131.952 446.975 131.54C446.628 131.116 446.455 130.591 446.455 129.967C446.455 129.449 446.521 128.624 446.655 127.493C446.668 127.316 446.701 126.981 446.755 126.486C446.808 125.979 446.835 125.555 446.835 125.214C446.835 124.742 446.708 124.407 446.455 124.206C446.201 123.994 445.815 123.888 445.295 123.888H444.475V122.492H445.635C446.541 122.492 447.262 122.716 447.795 123.164C448.342 123.611 448.615 124.259 448.615 125.108C448.615 125.626 448.548 126.462 448.415 127.617C448.282 128.701 448.215 129.466 448.215 129.914C448.215 130.927 448.895 131.546 450.255 131.77V133.024Z" fill="#1C1E53"/>
<path d="M0 89.5279C0 84.2798 4.8142 80.0254 10.7528 80.0254H182.798C188.736 80.0254 193.551 84.2798 193.551 89.5279V187.72C193.551 192.968 188.736 197.223 182.798 197.223H10.7528C4.8142 197.223 0 192.968 0 187.72V89.5279Z" fill="url(#paint2_linear_706_874)"/>
<path fill-rule="evenodd" clip-rule="evenodd" d="M182.798 81.6091H10.7528C5.80397 81.6091 1.79213 85.1545 1.79213 89.5279V187.72C1.79213 192.094 5.80397 195.639 10.7528 195.639H182.798C187.747 195.639 191.758 192.094 191.758 187.72V89.5279C191.758 85.1545 187.747 81.6091 182.798 81.6091ZM10.7528 80.0254C4.8142 80.0254 0 84.2798 0 89.5279V187.72C0 192.968 4.8142 197.223 10.7528 197.223H182.798C188.736 197.223 193.551 192.968 193.551 187.72V89.5279C193.551 84.2798 188.736 80.0254 182.798 80.0254H10.7528Z" fill="url(#paint3_linear_706_874)"/>
<path d="M21.5059 110.909C21.5059 108.285 23.913 106.158 26.8823 106.158H77.062C80.0313 106.158 82.4384 108.285 82.4384 110.909V161.589C82.4384 164.213 80.0313 166.341 77.062 166.341H26.8823C23.913 166.341 21.5059 164.213 21.5059 161.589V110.909Z" fill="white" fill-opacity="0.17"/>
<path d="M94.0859 110.514C94.0859 108.108 96.2924 106.158 99.0143 106.158H162.635C165.357 106.158 167.563 108.108 167.563 110.514C167.563 112.919 165.357 114.869 162.635 114.869H99.0143C96.2924 114.869 94.0859 112.919 94.0859 110.514Z" fill="white" fill-opacity="0.6"/>
<path d="M94.0859 127.142C94.0859 124.737 96.2924 122.787 99.0143 122.787H162.635C165.357 122.787 167.563 124.737 167.563 127.142C167.563 129.548 165.357 131.498 162.635 131.498H99.0143C96.2924 131.498 94.0859 129.548 94.0859 127.142Z" fill="white" fill-opacity="0.26"/>
<path d="M94.0859 154.858C94.0859 146.767 101.508 140.208 110.663 140.208H111.559C120.715 140.208 128.136 146.767 128.136 154.858C128.136 162.948 120.715 169.507 111.559 169.507H110.663C101.508 169.507 94.0859 162.948 94.0859 154.858Z" fill="#767799"/>
<path d="M90.5039 29.7422C90.5039 20.7767 98.7282 13.5088 108.873 13.5088H521.96C532.105 13.5088 540.33 20.7767 540.33 29.7422C540.33 38.7077 532.105 45.9756 521.96 45.9756H108.873C98.7281 45.9756 90.5039 38.7077 90.5039 29.7422Z" fill="url(#paint4_linear_706_874)"/>
<path d="M465.955 176.634C465.955 171.386 470.769 167.132 476.708 167.132H627.247C633.186 167.132 638 171.386 638 176.634V274.827C638 280.075 633.186 284.329 627.247 284.329H476.708C470.769 284.329 465.955 280.075 465.955 274.827V176.634Z" fill="url(#paint5_linear_706_874)"/>
<path fill-rule="evenodd" clip-rule="evenodd" d="M627.247 168.716H476.708C471.759 168.716 467.747 172.261 467.747 176.634V274.827C467.747 279.2 471.759 282.745 476.708 282.745H627.247C632.196 282.745 636.208 279.2 636.208 274.827V176.634C636.208 172.261 632.196 168.716 627.247 168.716ZM476.708 167.132C470.769 167.132 465.955 171.386 465.955 176.634V274.827C465.955 280.075 470.769 284.329 476.708 284.329H627.247C633.186 284.329 638 280.075 638 274.827V176.634C638 171.386 633.186 167.132 627.247 167.132H476.708Z" fill="url(#paint6_linear_706_874)"/>
<path d="M481.885 186.136C481.885 184.387 483.489 182.969 485.469 182.969H618.485C620.465 182.969 622.07 184.387 622.07 186.136C622.07 187.886 620.465 189.304 618.485 189.304H485.469C483.489 189.304 481.885 187.886 481.885 186.136Z" fill="url(#paint7_linear_706_874)"/>
<path d="M481.885 201.974C481.885 200.225 483.489 198.807 485.469 198.807H528.48C530.46 198.807 532.065 200.225 532.065 201.974C532.065 203.723 530.46 205.142 528.48 205.142H485.469C483.489 205.142 481.885 203.723 481.885 201.974Z" fill="url(#paint8_linear_706_874)"/>
<path d="M538.437 201.974C538.437 200.225 540.041 198.807 542.021 198.807H558.747C560.727 198.807 562.332 200.225 562.332 201.974C562.332 203.723 560.727 205.142 558.747 205.142H542.021C540.041 205.142 538.437 203.723 538.437 201.974Z" fill="url(#paint9_linear_706_874)"/>
<path d="M481.885 265.325C481.885 263.575 483.489 262.157 485.469 262.157H528.48C530.46 262.157 532.065 263.575 532.065 265.325C532.065 267.074 530.46 268.492 528.48 268.492H485.469C483.489 268.492 481.885 267.074 481.885 265.325Z" fill="url(#paint10_linear_706_874)"/>
<path d="M538.437 265.325C538.437 263.575 540.041 262.157 542.021 262.157H558.747C560.727 262.157 562.332 263.575 562.332 265.325C562.332 267.074 560.727 268.492 558.747 268.492H542.021C540.041 268.492 538.437 267.074 538.437 265.325Z" fill="url(#paint11_linear_706_874)"/>
<path d="M510.56 233.649C510.56 231.9 512.164 230.481 514.144 230.481H526.091C528.071 230.481 529.676 231.9 529.676 233.649C529.676 235.398 528.071 236.816 526.091 236.816H514.144C512.164 236.816 510.56 235.398 510.56 233.649Z" fill="url(#paint12_linear_706_874)"/>
<path d="M536.845 233.649C536.845 231.9 538.449 230.481 540.429 230.481H591.405C593.385 230.481 594.99 231.9 594.99 233.649C594.99 235.398 593.385 236.816 591.405 236.816H540.429C538.449 236.816 536.845 235.398 536.845 233.649Z" fill="url(#paint13_linear_706_874)"/>
<path d="M481.885 233.649C481.885 231.9 483.489 230.481 485.469 230.481H502.196C504.175 230.481 505.78 231.9 505.78 233.649C505.78 235.398 504.175 236.816 502.196 236.816H485.469C483.489 236.816 481.885 235.398 481.885 233.649Z" fill="url(#paint14_linear_706_874)"/>
<path d="M481.885 217.811C481.885 216.062 483.489 214.644 485.469 214.644H543.614C545.593 214.644 547.198 216.062 547.198 217.811C547.198 219.56 545.593 220.979 543.614 220.979H485.469C483.489 220.979 481.885 219.56 481.885 217.811Z" fill="url(#paint15_linear_706_874)"/>
<path d="M552.774 217.811C552.774 216.062 554.379 214.644 556.359 214.644H583.44C585.419 214.644 587.024 216.062 587.024 217.811C587.024 219.56 585.419 220.979 583.44 220.979H556.359C554.379 220.979 552.774 219.56 552.774 217.811Z" fill="url(#paint16_linear_706_874)"/>
<path d="M481.885 249.487C481.885 247.737 483.489 246.319 485.469 246.319H543.614C545.593 246.319 547.198 247.737 547.198 249.487C547.198 251.236 545.593 252.654 543.614 252.654H485.469C483.489 252.654 481.885 251.236 481.885 249.487Z" fill="url(#paint17_linear_706_874)"/>
<path d="M123.343 29.9201C123.343 32.919 120.591 35.35 117.197 35.35C113.802 35.35 111.051 32.919 111.051 29.9201C111.051 26.9213 113.802 24.4902 117.197 24.4902C120.591 24.4902 123.343 26.9213 123.343 29.9201Z" fill="#FED280"/>
<path d="M144.855 29.9201C144.855 32.919 142.103 35.35 138.709 35.35C135.314 35.35 132.562 32.919 132.562 29.9201C132.562 26.9213 135.314 24.4902 138.709 24.4902C142.103 24.4902 144.855 26.9213 144.855 29.9201Z" fill="#8CFEE3" fill-opacity="0.9"/>
<path d="M166.368 29.9201C166.368 32.919 163.617 35.35 160.222 35.35C156.828 35.35 154.076 32.919 154.076 29.9201C154.076 26.9213 156.828 24.4902 160.222 24.4902C163.617 24.4902 166.368 26.9213 166.368 29.9201Z" fill="#FF8DA9" fill-opacity="0.9"/>
<path d="M48.0291 135.039C46.3382 133.09 43.2716 133.228 41.7627 135.321L30.4503 151.014C28.5431 153.66 30.4337 157.354 33.6951 157.354H70.296C73.6725 157.354 75.53 153.428 73.389 150.817L67.3315 143.43C65.855 141.629 63.1587 141.466 61.4751 143.074L60.9692 143.558C59.3174 145.136 56.6814 145.013 55.1843 143.287L48.0291 135.039Z" fill="white"/>
<path d="M71.479 123.791C71.479 126.633 68.8713 128.938 65.6545 128.938C62.4378 128.938 59.8301 126.633 59.8301 123.791C59.8301 120.948 62.4378 118.644 65.6545 118.644C68.8713 118.644 71.479 120.948 71.479 123.791Z" fill="#C4C5DC"/>
<path fill-rule="evenodd" clip-rule="evenodd" d="M192.43 135.457C192.43 134.91 192.931 134.467 193.55 134.467H327.08V157.778C327.08 158.325 326.578 158.768 325.96 158.768C325.341 158.768 324.84 158.325 324.84 157.778V136.446H193.55C192.931 136.446 192.43 136.003 192.43 135.457Z" fill="url(#paint18_linear_706_874)"/>
<path fill-rule="evenodd" clip-rule="evenodd" d="M467.075 225.73C467.075 226.277 466.574 226.72 465.955 226.72L325.256 226.72L325.256 204.292C325.256 203.746 325.758 203.302 326.376 203.302C326.995 203.302 327.497 203.746 327.497 204.292L327.497 224.74L465.955 224.74C466.574 224.74 467.075 225.183 467.075 225.73Z" fill="url(#paint19_linear_706_874)"/>
<g filter="url(#filter0_d_706_874)">
<path fill-rule="evenodd" clip-rule="evenodd" d="M324.056 176.397C324.05 176.588 324.089 176.68 324.287 176.681H329.06C329.924 176.737 330.697 176.928 331.351 177.299C331.805 177.557 332.137 177.863 332.387 178.202C332.83 178.805 333.081 179.673 333.217 180.375C333.275 180.678 333.302 180.961 333.24 181.093C333.21 181.155 333.166 181.196 333.107 181.216C332.779 181.326 332.432 180.948 332.247 180.767C331.367 179.906 330.088 179.549 328.579 179.482H324.216C324.06 179.505 324.004 179.602 324.02 179.751V180.779C324.011 181.121 323.805 181.237 323.397 181.122L319.64 178.654L319.27 178.412L319.176 178.35C318.874 178.122 318.998 177.915 319.269 177.737L319.556 177.548L323.156 175.176C323.595 174.887 324.056 174.809 324.056 175.433V176.397ZM328.236 186.89C328.242 186.699 328.203 186.607 328.005 186.606H323.232C322.368 186.55 321.595 186.359 320.941 185.988C320.484 185.729 320.151 185.42 319.901 185.079C319.448 184.46 319.153 183.453 319.044 182.73C319.01 182.5 319.002 182.299 319.052 182.194C319.082 182.133 319.126 182.091 319.185 182.071C319.513 181.961 319.86 182.339 320.045 182.52C320.925 183.381 322.205 183.738 323.713 183.805H328.076C328.232 183.782 328.288 183.685 328.272 183.536V182.508C328.281 182.166 328.487 182.05 328.895 182.165L332.652 184.633L333.022 184.875L333.116 184.937C333.418 185.165 333.294 185.372 333.023 185.55L332.736 185.739L329.137 188.111C328.697 188.4 328.237 188.478 328.237 187.854L328.236 186.89Z" fill="#88F1DB"/>
</g>
<path d="M345 181.21C345 190.306 336.613 197.884 326 197.884C315.387 197.884 307 190.306 307 181.21C307 172.113 315.387 164.535 326 164.535C336.613 164.535 345 172.113 345 181.21Z" stroke="white" stroke-width="2"/>
<path d="M248.211 135.457C248.211 139.83 244.2 143.376 239.251 143.376C234.302 143.376 230.29 139.83 230.29 135.457C230.29 131.083 234.302 127.538 239.251 127.538C244.2 127.538 248.211 131.083 248.211 135.457Z" fill="#383A68"/>
<path fill-rule="evenodd" clip-rule="evenodd" d="M239.251 141.792C243.21 141.792 246.419 138.956 246.419 135.457C246.419 131.958 243.21 129.122 239.251 129.122C235.292 129.122 232.082 131.958 232.082 135.457C232.082 138.956 235.292 141.792 239.251 141.792ZM239.251 143.376C244.2 143.376 248.211 139.83 248.211 135.457C248.211 131.083 244.2 127.538 239.251 127.538C234.302 127.538 230.29 131.083 230.29 135.457C230.29 139.83 234.302 143.376 239.251 143.376Z" fill="#63648A"/>
<path d="M443.552 225.731C443.552 230.105 439.54 233.65 434.592 233.65C429.643 233.65 425.631 230.105 425.631 225.731C425.631 221.358 429.643 217.812 434.592 217.812C439.54 217.812 443.552 221.358 443.552 225.731Z" fill="#383A68"/>
<path fill-rule="evenodd" clip-rule="evenodd" d="M434.592 232.066C438.551 232.066 441.76 229.23 441.76 225.731C441.76 222.233 438.551 219.396 434.592 219.396C430.632 219.396 427.423 222.233 427.423 225.731C427.423 229.23 430.632 232.066 434.592 232.066ZM434.592 233.65C439.54 233.65 443.552 230.105 443.552 225.731C443.552 221.358 439.54 217.812 434.592 217.812C429.643 217.812 425.631 221.358 425.631 225.731C425.631 230.105 429.643 233.65 434.592 233.65Z" fill="#63648A"/>
<path d="M134.41 146.15C134.41 142.868 137.421 140.208 141.136 140.208H160.472C164.186 140.208 167.197 142.868 167.197 146.15V163.233C167.197 166.514 164.186 169.175 160.472 169.175H141.136C137.421 169.175 134.41 166.514 134.41 163.233V146.15Z" fill="#767799"/>
<path fill-rule="evenodd" clip-rule="evenodd" d="M154.065 162.999H148.007V160.771H154.065V162.999Z" fill="white"/>
<path fill-rule="evenodd" clip-rule="evenodd" d="M142.396 148.007H159.21V151.591H156.688V150.235H144.919V151.591H142.396V148.007Z" fill="white"/>
<path fill-rule="evenodd" clip-rule="evenodd" d="M149.699 162.01L149.854 149.246L152.376 149.27L152.22 162.034L149.699 162.01Z" fill="white"/>
<defs>
<filter id="filter0_d_706_874" x="305" y="164.959" width="42.292" height="41.3691" filterUnits="userSpaceOnUse" color-interpolation-filters="sRGB">
<feFlood flood-opacity="0" result="BackgroundImageFix"/>
<feColorMatrix in="SourceAlpha" type="matrix" values="0 0 0 0 0 0 0 0 0 0 0 0 0 0 0 0 0 0 127 0" result="hardAlpha"/>
<feOffset dy="4"/>
<feGaussianBlur stdDeviation="7"/>
<feComposite in2="hardAlpha" operator="out"/>
<feColorMatrix type="matrix" values="0 0 0 0 0.533333 0 0 0 0 0.945098 0 0 0 0 0.858824 0 0 0 1 0"/>
<feBlend mode="normal" in2="BackgroundImageFix" result="effect1_dropShadow_706_874"/>
<feBlend mode="normal" in="SourceGraphic" in2="effect1_dropShadow_706_874" result="shape"/>
</filter>
<linearGradient id="paint0_linear_706_874" x1="319.25" y1="0.046875" x2="416.707" y2="469.226" gradientUnits="userSpaceOnUse">
<stop stop-color="white" stop-opacity="0.16"/>
<stop offset="1" stop-color="#C4C4C4" stop-opacity="0"/>
</linearGradient>
<linearGradient id="paint1_linear_706_874" x1="319" y1="0.0468868" x2="628.203" y2="252.464" gradientUnits="userSpaceOnUse">
<stop stop-color="white" stop-opacity="0.17"/>
<stop offset="1" stop-opacity="0"/>
</linearGradient>
<linearGradient id="paint2_linear_706_874" x1="41.8266" y1="111.495" x2="243.38" y2="408.445" gradientUnits="userSpaceOnUse">
<stop stop-color="#40416E"/>
<stop offset="1" stop-color="#5A5B8B"/>
</linearGradient>
<linearGradient id="paint3_linear_706_874" x1="96.7753" y1="80.0254" x2="161.926" y2="381.85" gradientUnits="userSpaceOnUse">
<stop stop-color="white" stop-opacity="0.17"/>
<stop offset="1" stop-opacity="0"/>
</linearGradient>
<linearGradient id="paint4_linear_706_874" x1="315.417" y1="13.5088" x2="369.632" y2="202.64" gradientUnits="userSpaceOnUse">
<stop stop-color="white" stop-opacity="0.15"/>
<stop offset="1" stop-color="#C4C4C4" stop-opacity="0"/>
</linearGradient>
<linearGradient id="paint5_linear_706_874" x1="797.652" y1="473.509" x2="379.3" y2="43.7304" gradientUnits="userSpaceOnUse">
<stop stop-color="#40416E"/>
<stop offset="1" stop-color="#5A5B8B"/>
</linearGradient>
<linearGradient id="paint6_linear_706_874" x1="551.978" y1="167.132" x2="624.416" y2="465.429" gradientUnits="userSpaceOnUse">
<stop stop-color="white" stop-opacity="0.17"/>
<stop offset="1" stop-opacity="0"/>
</linearGradient>
<linearGradient id="paint7_linear_706_874" x1="551.977" y1="182.969" x2="558.921" y2="221.659" gradientUnits="userSpaceOnUse">
<stop stop-color="white" stop-opacity="0.56"/>
<stop offset="1" stop-color="#C4C4C4" stop-opacity="0"/>
</linearGradient>
<linearGradient id="paint8_linear_706_874" x1="506.975" y1="198.807" x2="522.976" y2="230.72" gradientUnits="userSpaceOnUse">
<stop stop-color="#F9C746" stop-opacity="0.52"/>
<stop offset="1" stop-color="#C4C4C4" stop-opacity="0"/>
</linearGradient>
<linearGradient id="paint9_linear_706_874" x1="550.384" y1="198.807" x2="570.326" y2="217.746" gradientUnits="userSpaceOnUse">
<stop stop-color="#84EBE5" stop-opacity="0.62"/>
<stop offset="1" stop-color="#C4C4C4" stop-opacity="0"/>
</linearGradient>
<linearGradient id="paint10_linear_706_874" x1="506.975" y1="262.157" x2="522.976" y2="294.071" gradientUnits="userSpaceOnUse">
<stop stop-color="white" stop-opacity="0.56"/>
<stop offset="1" stop-color="#C4C4C4" stop-opacity="0"/>
</linearGradient>
<linearGradient id="paint11_linear_706_874" x1="550.384" y1="262.157" x2="570.326" y2="281.096" gradientUnits="userSpaceOnUse">
<stop stop-color="#F47D9E"/>
<stop offset="1" stop-color="#C4C4C4" stop-opacity="0"/>
</linearGradient>
<linearGradient id="paint12_linear_706_874" x1="520.118" y1="230.481" x2="539.355" y2="245.098" gradientUnits="userSpaceOnUse">
<stop stop-color="#F2C87D"/>
<stop offset="1" stop-color="#C4C4C4" stop-opacity="0"/>
</linearGradient>
<linearGradient id="paint13_linear_706_874" x1="565.917" y1="230.481" x2="580.472" y2="264.119" gradientUnits="userSpaceOnUse">
<stop stop-color="white" stop-opacity="0.62"/>
<stop offset="1" stop-color="#C4C4C4" stop-opacity="0"/>
</linearGradient>
<linearGradient id="paint14_linear_706_874" x1="488.257" y1="228.898" x2="524.734" y2="234.726" gradientUnits="userSpaceOnUse">
<stop stop-color="#F37D9D"/>
<stop offset="1" stop-color="#C4C4C4" stop-opacity="0"/>
</linearGradient>
<linearGradient id="paint15_linear_706_874" x1="514.541" y1="214.644" x2="527.938" y2="249.419" gradientUnits="userSpaceOnUse">
<stop stop-color="white" stop-opacity="0.58"/>
<stop offset="1" stop-color="#C4C4C4" stop-opacity="0"/>
</linearGradient>
<linearGradient id="paint16_linear_706_874" x1="569.899" y1="214.644" x2="588.954" y2="240.582" gradientUnits="userSpaceOnUse">
<stop stop-color="white" stop-opacity="0.45"/>
<stop offset="1" stop-color="#C4C4C4" stop-opacity="0"/>
</linearGradient>
<linearGradient id="paint17_linear_706_874" x1="514.541" y1="246.319" x2="527.938" y2="281.095" gradientUnits="userSpaceOnUse">
<stop stop-color="#70D1E7"/>
<stop offset="1" stop-color="#C4C4C4" stop-opacity="0"/>
</linearGradient>
<linearGradient id="paint18_linear_706_874" x1="314.831" y1="129.989" x2="139.229" y2="189.961" gradientUnits="userSpaceOnUse">
<stop stop-color="#767799"/>
<stop offset="1" stop-color="#767799" stop-opacity="0"/>
</linearGradient>
<linearGradient id="paint19_linear_706_874" x1="338.205" y1="231.197" x2="521.082" y2="165.41" gradientUnits="userSpaceOnUse">
<stop stop-color="#767799"/>
<stop offset="1" stop-color="#767799" stop-opacity="0"/>
</linearGradient>
</defs>
</svg>
